# xmcd CD database file
#
# Track frame offsets:
#	150
#	20675
#	45265
#	62265
#	82315
#	101737
#	129710
#	139947
#	168555
#	194517
#	208955
#
# Disc length: 3085 seconds
#
# Revision: 0
# Processed by: cddbd v1.5PL3 Copyright (c) Steve Scherf et al.
# Submitted via: CDex 1.51
#
DISCID=a40c0b0b
DTITLE=Steve Davis - Quality of Silence
DYEAR=1998
DGENRE=Jazz
TTITLE0=The Quality of Your Silence
TTITLE1=Bye Bye Blackbird
TTITLE2=One Two Free
TTITLE3=I Thought About You
TTITLE4=Yesterdays
TTITLE5=Infant Eyes
TTITLE6=Free To Be Me
TTITLE7=Smoke Gets In Your Eyes
TTITLE8=I´m Old Fashioned
TTITLE9=Freedom
TTITLE10=A Cole Porter Flat
EXTD=YEAR: 1998
EXTT0=
EXTT1=
EXTT2=
EXTT3=
EXTT4=
EXTT5=
EXTT6=
EXTT7=
EXTT8=
EXTT9=
EXTT10=
PLAYORDER=
